# xmcd CD database file
# Generated: man aug 12 21:31:24 2002 by KSCD
# 
# Track frame offsets:
#       150
#       19403
#       33451
#       47544
#       65986
#       83159
#       98921
#       112943
#       133582
#       152180
#
# Disc length: 2172 seconds
#
# Revision: 1
# Processed by: cddbd v1.4PL0 Copyright (c) Steve Scherf et al.
# Submitted via: Kscd 1.3.3
#
DISCID=83087a0a
DTITLE=Bönkers - Opp
DYEAR=1900
DGENRE=
TTITLE0=Workin' It
TTITLE1=Just Remeber
TTITLE2=Chain Of Pearls
TTITLE3=When Life Come Crashing
TTITLE4=Jessica Lange
TTITLE5=Melting In Your Presence
TTITLE6=Tired Wheels
TTITLE7=Secret Land
TTITLE8=Taken In The Fall
TTITLE9=November
EXTD=1999
EXTT0=
EXTT1=
EXTT2=
EXTT3=
EXTT4=
EXTT5=
EXTT6=
EXTT7=
EXTT8=
EXTT9=
PLAYORDER=
